# 3ds Max Wavefront OBJ Exporter v0.97b - (c)2007 guruware
# File Created: 15.05.2018 15:03:31

mtllib capsulechair.mtl

#
# object Box001
#

v  -2.8454 -16.6714 -5.8894
v  -2.8454 -16.6714 -10.8894
v  2.1546 -16.6714 -10.8894
v  2.1546 -16.6714 -5.8894
v  -2.8454 -11.6714 -5.8894
v  2.1546 -11.6714 -5.8894
v  2.1546 -11.6714 -10.8894
v  -2.8454 -11.6714 -10.8894
# 8 vertices

vn 0.0000 -1.0000 -0.0000
vn 0.0000 1.0000 -0.0000
vn 0.0000 0.0000 1.0000
vn 1.0000 0.0000 -0.0000
vn 0.0000 0.0000 -1.0000
vn -1.0000 0.0000 -0.0000
# 6 vertex normals

vt 1.0000 0.0000 0.0000
vt 1.0000 1.0000 0.0000
vt 0.0000 1.0000 0.0000
vt 0.0000 0.0000 0.0000
# 4 texture coords

g Box001
usemtl wire_000000000
s 2
f 1/1/1 2/2/1 3/3/1 4/4/1 
s 4
f 5/4/2 6/1/2 7/2/2 8/3/2 
s 8
f 1/4/3 4/1/3 6/2/3 5/3/3 
s 16
f 4/4/4 3/1/4 7/2/4 6/3/4 
s 32
f 3/4/5 2/1/5 8/2/5 7/3/5 
s 64
f 2/4/6 1/1/6 5/2/6 8/3/6 
# 6 polygons

#
# object Box002
#

v  -7.3261 -11.7336 -3.7172
v  -7.3261 -11.7336 -13.5641
v  6.3634 -11.7336 -13.5641
v  6.3634 -11.7336 -3.7172
v  -7.3261 -9.9681 -3.7172
v  6.3634 -9.9681 -3.7172
v  6.3634 -9.9681 -13.5641
v  -7.3261 -9.9681 -13.5641
# 8 vertices

vn 0.0000 -1.0000 -0.0000
vn 0.0000 1.0000 -0.0000
vn 0.0000 0.0000 1.0000
vn 1.0000 0.0000 -0.0000
vn 0.0000 0.0000 -1.0000
vn -1.0000 0.0000 -0.0000
# 6 vertex normals

vt 1.0000 0.0000 0.0000
vt 1.0000 1.0000 0.0000
vt 0.0000 1.0000 0.0000
vt 0.0000 0.0000 0.0000
# 4 texture coords

g Box002
usemtl wire_000000000
s 2
f 9/5/7 10/6/7 11/7/7 12/8/7 
s 4
f 13/8/8 14/5/8 15/6/8 16/7/8 
s 8
f 9/8/9 12/5/9 14/6/9 13/7/9 
s 16
f 12/8/10 11/5/10 15/6/10 14/7/10 
s 32
f 11/8/11 10/5/11 16/6/11 15/7/11 
s 64
f 10/8/12 9/5/12 13/6/12 16/7/12 
# 6 polygons

#
# object Box003
#

v  -7.3261 -2.9941 1.0004
v  -7.3261 -11.4971 -3.9654
v  6.3634 -11.4971 -3.9654
v  6.3634 -2.9941 1.0004
v  -7.3261 -2.1038 -0.5241
v  6.3634 -2.1038 -0.5241
v  6.3634 -10.6068 -5.4899
v  -7.3261 -10.6068 -5.4899
# 8 vertices

vn 0.0000 -0.5043 0.8635
vn 0.0000 0.5043 -0.8635
vn 0.0000 0.8635 0.5043
vn 1.0000 0.0000 -0.0000
vn 0.0000 -0.8635 -0.5043
vn -1.0000 0.0000 -0.0000
# 6 vertex normals

vt 1.0000 0.0000 0.0000
vt 1.0000 1.0000 0.0000
vt 0.0000 1.0000 0.0000
vt 0.0000 0.0000 0.0000
# 4 texture coords

g Box003
usemtl wire_000000000
s 2
f 17/9/13 18/10/13 19/11/13 20/12/13 
s 4
f 21/12/14 22/9/14 23/10/14 24/11/14 
s 8
f 17/12/15 20/9/15 22/10/15 21/11/15 
s 16
f 20/12/16 19/9/16 23/10/16 22/11/16 
s 32
f 19/12/17 18/9/17 24/10/17 23/11/17 
s 64
f 18/12/18 17/9/18 21/10/18 24/11/18 
# 6 polygons

#
# object Box004
#

v  -7.3261 -3.3567 -0.9439
v  -7.3261 4.4787 -0.9439
v  6.3634 4.4787 -0.9439
v  6.3634 -3.3567 -0.9439
v  -7.3261 -3.3567 0.8216
v  6.3634 -3.3567 0.8216
v  6.3634 4.4787 0.8216
v  -7.3261 4.4787 0.8216
# 8 vertices

vn 0.0000 0.0000 -1.0000
vn 0.0000 -0.0000 1.0000
vn 0.0000 -1.0000 -0.0000
vn 1.0000 0.0000 -0.0000
vn 0.0000 1.0000 0.0000
vn -1.0000 0.0000 -0.0000
# 6 vertex normals

vt 1.0000 0.0000 0.0000
vt 1.0000 1.0000 0.0000
vt 0.0000 1.0000 0.0000
vt 0.0000 0.0000 0.0000
# 4 texture coords

g Box004
usemtl wire_000000000
s 2
f 25/13/19 26/14/19 27/15/19 28/16/19 
s 4
f 29/16/20 30/13/20 31/14/20 32/15/20 
s 8
f 25/16/21 28/13/21 30/14/21 29/15/21 
s 16
f 28/16/22 27/13/22 31/14/22 30/15/22 
s 32
f 27/16/23 26/13/23 32/14/23 31/15/23 
s 64
f 26/16/24 25/13/24 29/14/24 32/15/24 
# 6 polygons

#
# object Box005
#

v  -4.9243 4.1787 -0.9439
v  -4.9243 7.5558 -0.9439
v  3.9617 7.5558 -0.9439
v  3.9617 4.1787 -0.9439
v  -4.9243 4.1787 0.8216
v  3.9617 4.1787 0.8216
v  3.9617 7.5558 0.8216
v  -4.9243 7.5558 0.8216
# 8 vertices

vn 0.0000 0.0000 -1.0000
vn 0.0000 -0.0000 1.0000
vn 0.0000 -1.0000 -0.0000
vn 1.0000 0.0000 -0.0000
vn 0.0000 1.0000 0.0000
vn -1.0000 0.0000 -0.0000
# 6 vertex normals

vt 1.0000 0.0000 0.0000
vt 1.0000 1.0000 0.0000
vt 0.0000 1.0000 0.0000
vt 0.0000 0.0000 0.0000
# 4 texture coords

g Box005
usemtl wire_000000000
s 2
f 33/17/25 34/18/25 35/19/25 36/20/25 
s 4
f 37/20/26 38/17/26 39/18/26 40/19/26 
s 8
f 33/20/27 36/17/27 38/18/27 37/19/27 
s 16
f 36/20/28 35/17/28 39/18/28 38/19/28 
s 32
f 35/20/29 34/17/29 40/18/29 39/19/29 
s 64
f 34/20/30 33/17/30 37/18/30 40/19/30 
# 6 polygons

#
# object Box006
#

v  4.6221 -6.9088 -3.7172
v  4.6221 -6.9088 -13.5641
v  4.6221 -11.1031 -13.5641
v  4.6221 -11.1031 -3.7172
v  6.3876 -6.9088 -3.7172
v  6.3876 -11.1031 -3.7172
v  6.3876 -11.1031 -13.5641
v  6.3876 -6.9088 -13.5641
# 8 vertices

vn -1.0000 0.0000 0.0000
vn 1.0000 -0.0000 -0.0000
vn 0.0000 -0.0000 1.0000
vn -0.0000 -1.0000 -0.0000
vn -0.0000 0.0000 -1.0000
vn 0.0000 1.0000 -0.0000
# 6 vertex normals

vt 1.0000 0.0000 0.0000
vt 1.0000 1.0000 0.0000
vt 0.0000 1.0000 0.0000
vt 0.0000 0.0000 0.0000
# 4 texture coords

g Box006
usemtl wire_000000000
s 2
f 41/21/31 42/22/31 43/23/31 44/24/31 
s 4
f 45/24/32 46/21/32 47/22/32 48/23/32 
s 8
f 41/24/33 44/21/33 46/22/33 45/23/33 
s 16
f 44/24/34 43/21/34 47/22/34 46/23/34 
s 32
f 43/24/35 42/21/35 48/22/35 47/23/35 
s 64
f 42/24/36 41/21/36 45/22/36 48/23/36 
# 6 polygons

#
# object Box007
#

v  -7.1533 -6.9088 -3.7172
v  -7.1533 -6.9088 -13.5641
v  -7.1533 -11.1031 -13.5641
v  -7.1533 -11.1031 -3.7172
v  -5.3878 -6.9088 -3.7172
v  -5.3878 -11.1031 -3.7172
v  -5.3879 -11.1031 -13.5641
v  -5.3879 -6.9088 -13.5641
# 8 vertices

vn -1.0000 0.0000 0.0000
vn 1.0000 -0.0000 -0.0000
vn 0.0000 -0.0000 1.0000
vn -0.0000 -1.0000 -0.0000
vn -0.0000 0.0000 -1.0000
vn 0.0000 1.0000 -0.0000
# 6 vertex normals

vt 1.0000 0.0000 0.0000
vt 1.0000 1.0000 0.0000
vt 0.0000 1.0000 0.0000
vt 0.0000 0.0000 0.0000
# 4 texture coords

g Box007
usemtl wire_000000000
s 2
f 49/25/37 50/26/37 51/27/37 52/28/37 
s 4
f 53/28/38 54/25/38 55/26/38 56/27/38 
s 8
f 49/28/39 52/25/39 54/26/39 53/27/39 
s 16
f 52/28/40 51/25/40 55/26/40 54/27/40 
s 32
f 51/28/41 50/25/41 56/26/41 55/27/41 
s 64
f 50/28/42 49/25/42 53/26/42 56/27/42 
# 6 polygons

